<?xml version="1.0" encoding="utf-8"?>
<svg xmlns="http://www.w3.org/2000/svg" width="237.9" height="239.2" viewBox="0 0 237.9 239.2">
  <defs/>
  <path fill="#FFF" d="M118.6.9C53.2.9 0 54.1 0 119.4 0 184.8 53.2 238 118.6 238c65.4 0 118.6-53.2 118.6-118.6C237.1 54.1 183.9.9 118.6.9zM4 119.4c0-30.9 12.3-58.9 32.2-79.5l24.3 24.3c.4.4.9.6 1.4.6s1-.2 1.4-.6c.8-.8.8-2 0-2.8L39 37.1C59.6 17.2 87.7 4.9 118.6 4.9c63.2 0 114.6 51.4 114.6 114.6 0 30.9-12.3 58.9-32.2 79.5l-24.6-24.6c-.8-.8-2-.8-2.8 0s-.8 2 0 2.8l24.6 24.6c-20.6 19.9-48.7 32.2-79.5 32.2C55.4 234 4 182.6 4 119.4z"/>
  <path fill="#1A0E51" d="M89.7 114.8c-12.6 0-22.8-10.2-22.8-22.8 0-12.6 10.2-22.8 22.8-22.8s22.8 10.2 22.8 22.8c.1 12.6-10.2 22.8-22.8 22.8zm0-41.7c-10.4 0-18.8 8.5-18.8 18.8 0 10.4 8.5 18.8 18.8 18.8s18.8-8.5 18.8-18.8c.1-10.3-8.4-18.8-18.8-18.8zm57.7 96.6c-12.6 0-22.8-10.2-22.8-22.8 0-12.6 10.2-22.8 22.8-22.8 12.6 0 22.8 10.2 22.8 22.8 0 12.6-10.2 22.8-22.8 22.8zm0-41.7c-10.4 0-18.8 8.5-18.8 18.8 0 10.4 8.5 18.8 18.8 18.8s18.8-8.5 18.8-18.8-8.4-18.8-18.8-18.8zm-62 38.3l69.5-94c.7-.9.5-2.1-.4-2.8-.9-.7-2.1-.5-2.8.4l-69.5 94c-.7.9-.5 2.1.4 2.8.4.3.8.4 1.2.4.6 0 1.2-.3 1.6-.8z"/>
</svg>
