<?xml version="1.0" encoding="utf-8"?>
<svg xmlns="http://www.w3.org/2000/svg" width="237.9" height="239.2" viewBox="0 0 237.9 239.2">
  <defs/>
  <path fill="#FFF" d="M118.6 0C53.2 0 0 53.2 0 118.6s53.2 118.6 118.6 118.6c65.4 0 118.6-53.2 118.6-118.6S183.9 0 118.6 0zM4 118.6c0-30.9 12.3-59 32.2-79.6l37.3 37.3c.4.4.9.6 1.4.6s1-.2 1.4-.6c.8-.8.8-2 0-2.8L39 36.2C59.6 16.3 87.7 4 118.6 4c63.2 0 114.6 51.4 114.6 114.6 0 30.9-12.3 58.9-32.2 79.5L164.8 162c-.8-.8-2-.8-2.8 0s-.8 2 0 2.8l36.1 36.1c-20.6 19.9-48.7 32.2-79.5 32.2C55.4 233.1 4 181.7 4 118.6z"/>
  <path fill="#1A0E51" d="M118.6 105.8c-.9 0-1.6-.6-1.9-1.4l-9.1-28.5c-1.1-3.5-1.1-7.3 0-10.8l9.1-28.5c.3-.8 1-1.4 1.9-1.4s1.6.6 1.9 1.4l9.1 28.5c1.1 3.5 1.1 7.3 0 10.8l-9.1 28.5c-.3.8-1.1 1.4-1.9 1.4zm0-62l-7.2 22.5c-.9 2.7-.9 5.6 0 8.4l7.2 22.5 7.2-22.5c.9-2.7.9-5.6 0-8.4l-7.2-22.5zM122 151c-.2 0-.4 0-.6-.1-.8-.3-1.4-1-1.4-1.9v-31.9c0-3.9 1.2-7.7 3.5-10.9l18.4-26.1c.5-.7 1.4-1 2.2-.8.8.3 1.4 1 1.4 1.9v31.9c0 3.9-1.2 7.7-3.5 10.9l-18.4 26.1c-.4.6-1 .9-1.6.9zm19.4-63.4l-14.8 20.9c-1.8 2.5-2.7 5.5-2.7 8.6v25.6l14.8-20.9c1.8-2.5 2.7-5.5 2.7-8.6V87.6zm-26.2 61.9c-.6 0-1.3-.3-1.6-.8l-18.4-26c-2.3-3.2-3.5-7-3.5-10.9V79.9c0-.9.6-1.6 1.4-1.9.8-.3 1.7 0 2.2.8l18.4 26c2.3 3.2 3.5 7 3.5 10.9v31.9c0 .9-.6 1.6-1.4 1.9h-.6zM95.7 86.1v25.6c0 3.1.9 6.1 2.7 8.6l14.8 20.9v-25.6c0-3.1-.9-6.1-2.7-8.6L95.7 86.1zM122 201.9c-.2 0-.4 0-.6-.1-.8-.3-1.4-1-1.4-1.9V168c0-3.9 1.2-7.7 3.5-10.9l18.4-26c.5-.7 1.4-1 2.2-.8.8.3 1.4 1 1.4 1.9v31.9c0 3.9-1.2 7.7-3.5 10.9l-18.4 26.1c-.4.5-1 .8-1.6.8zm19.4-63.4l-14.8 20.9c-1.8 2.5-2.7 5.5-2.7 8.6v25.6l14.8-20.9c1.8-2.5 2.7-5.5 2.7-8.6v-25.6zm-26.2 61.9c-.6 0-1.3-.3-1.6-.8l-18.4-26.1c-2.3-3.2-3.5-7-3.5-10.9v-31.9c0-.9.6-1.6 1.4-1.9.8-.3 1.7 0 2.2.8l18.4 26.1c2.3 3.2 3.5 7 3.5 10.9v31.9c0 .9-.6 1.6-1.4 1.9h-.6zM95.7 137v25.6c0 3.1.9 6.1 2.7 8.6l14.8 20.9v-25.6c0-3.1-.9-6.1-2.7-8.6L95.7 137z"/>
</svg>
