<?xml version="1.0" encoding="utf-8"?>
<svg xmlns="http://www.w3.org/2000/svg" width="237.9" height="239.2" viewBox="0 0 237.9 239.2">
  <defs/>
  <path fill="#1A0E51" d="M171.6 190.4H67.1c-10 0-18.1-8.1-18.1-18.1V67.8c0-10 8.1-18.1 18.1-18.1h104.5c10 0 18.1 8.1 18.1 18.1v104.5c0 10-8.1 18.1-18.1 18.1zM67.1 53.7C59.3 53.7 53 60 53 67.8v104.5c0 7.8 6.3 14.1 14.1 14.1h104.5c7.8 0 14.1-6.3 14.1-14.1V67.8c0-7.8-6.3-14.1-14.1-14.1H67.1z"/>
  <path fill="#FFF" d="M119.2 100c8.8 0 17.2 2.7 23 7.3L160 84.4c.3-.4.3-1.1-.1-1.4-9.4-9.7-27.3-14-40.8-14-13.2 0-30.8 4.2-40.2 13.5-.3.3-.4 1-.1 1.4L96.5 107c5.8-4.5 13.9-7 22.7-7z"/>
  <path fill="#1A0E51" d="M162.7 80.2C153.7 71 136.5 65 119 65c-17.1 0-34 5.7-43 14.6-1.8 1.7-2 4.7-.5 6.6L94.6 111c.3.4.9.7 1.4.8.6 0 1.1-.1 1.5-.5 5-4.6 13-7.4 21.6-7.4 8.7 0 16.9 2.9 21.9 7.7.4.4.9.6 1.4.6h.1c.6 0 1.1-.3 1.4-.8L163 86.8c1.6-1.9 1.5-4.8-.3-6.6zm-2.8 4.2l-17.8 22.9c-5.3-4.2-12.8-6.9-20.8-7.3l-12.9-22.6c-.5-1-1.8-1.3-2.7-.7-1 .5-1.3 1.8-.7 2.7l11.8 20.6c-7.8.4-15 2.9-20.2 7L78.7 83.8c-.3-.4-.2-1 .1-1.4 9.5-9.3 27-13.5 40.2-13.5 13.5 0 31.4 4.3 40.8 14 .4.4.4 1.1.1 1.5z"/>
</svg>
