<?xml version="1.0" encoding="utf-8"?>
<svg xmlns="http://www.w3.org/2000/svg" width="237.9" height="239.2" viewBox="0 0 237.9 239.2">
  <defs/>
  <path fill="#1A0E51" d="M177 62.8c-7-15.2-15-25.8-15.3-26.2-.4-.6-1.2-.8-1.8-.8-.4 0-.9 0-1.3.3-1.3.8-32.2 20.4-45 48.2-.5 1 0 2.2 1 2.7.3.1.6.2.8.2.8 0 1.5-.4 1.8-1.2 10.9-23.7 36.4-41.7 42.3-45.7 5.2 7.4 30.1 44.6 21.7 75.2-6.6 24.4-21.3 34.5-35.4 44.3-3.4 2.4-6.9 4.8-10.3 7.4-.9.7-1 1.9-.4 2.8.4.5 1 .8 1.6.8.4 0 .9-.1 1.2-.4 3.2-2.5 6.7-4.9 10.1-7.3 14.7-10.2 30-20.8 37-46.5 5.1-18.8-1.5-39.6-8-53.8z"/>
  <path fill="#FFF" d="M112.7 171.2l-9.1-20.8 4.8-23.7c.2-1.1-.5-2.1-1.6-2.4-1.1-.2-2.1.5-2.4 1.6l-3.6 18.1-10.7-24.5L95 95.6c.2-1.1-.5-2.1-1.6-2.4-1.1-.2-2.1.5-2.4 1.6L87.4 113 77 89c-.4-1-1.6-1.5-2.6-1-1 .4-1.5 1.6-1 2.6l10.5 24.2-16.2-9.4c-1-.6-2.2-.2-2.7.7s-.2 2.2.7 2.7L86.5 121l10.9 25-16.3-9.5c-1-.6-2.2-.2-2.7.7s-.2 2.2.7 2.7l21 12.3 9 20.6c.3.8 1.1 1.2 1.8 1.2.3 0 .5-.1.8-.2 1-.5 1.4-1.6 1-2.6zM168.8 81.2c.8-.8.8-2 .1-2.8-.8-.8-2-.8-2.8-.1l-13.6 12.9 4.7-25.9c.2-1.1-.5-2.1-1.6-2.3-1.1-.2-2.1.5-2.3 1.6l-4.7 25.7-7.7-16.9c-.5-1-1.6-1.4-2.7-1-1 .5-1.4 1.6-1 2.7l10.1 22.1-4.8 26.3-7.7-16.7c-.5-1-1.6-1.4-2.7-1-1 .5-1.4 1.6-1 2.7l10.1 21.9-3.9 21.5c-.2 1.1.5 2.1 1.6 2.3h.4c.9 0 1.8-.7 2-1.6l3.9-21.3 17.7-16.8c.8-.8.8-2 .1-2.8-.8-.8-2-.8-2.8-.1l-13.7 13 4.9-26.8 17.4-16.6z"/>
  <path fill="#1A0E51" d="M119.5 187.5c0-.1.1-.2.1-.3 1.3-3.9 2.8-7.8 4.3-11.6 6.5-16.7 13.2-34 4.7-59.3-6.3-18.5-23.4-32-36.7-40.1C77.6 67.5 65 63.2 64.5 63c-.7-.2-1.4-.1-1.9.4-.4.2-.7.5-.9 1-.2.5-5.6 12.7-8.9 29.1-3.1 15.2-4.8 37 4.6 54.2 12.8 23.5 30 30.2 46.7 36.8 3.8 1.5 7.7 3 11.5 4.7.1.1.3.1.4.1l5 10.8c.3.7 1.1 1.2 1.8 1.2.3 0 .6-.1.8-.2 1-.5 1.4-1.7 1-2.7l-5.1-10.9zm-58.7-41.8c-15.2-28 .6-70.2 3.9-78.3 8.5 3.2 49.9 20.2 60.1 50.2 8.1 23.9 1.6 40.5-4.6 56.5-1.4 3.6-2.8 7.2-4.1 10.9-3.5-1.6-7.2-3-10.7-4.4-16-6.2-32.5-12.7-44.6-34.9z"/>
</svg>
