<?xml version="1.0" encoding="utf-8"?>
<svg xmlns="http://www.w3.org/2000/svg" width="237.9" height="239.2" viewBox="0 0 237.9 239.2">
  <defs/>
  <path fill="#FFF" d="M119.3 2.1C54 2.1.8 55.2.8 120.6S54 239.2 119.3 239.2c65.4 0 118.6-53.2 118.6-118.6 0-65.4-53.2-118.5-118.6-118.5zM4.8 120.6c0-30.9 12.3-58.9 32.2-79.5L52.9 57c.4.4.9.6 1.4.6s1-.2 1.4-.6c.8-.8.8-2 0-2.8L39.8 38.3c20.6-20 48.7-32.2 79.5-32.2 63.2 0 114.6 51.4 114.6 114.6 0 30.9-12.3 58.9-32.2 79.5L189 187.4c-.8-.8-2-.8-2.8 0s-.8 2 0 2.8l12.7 12.7c-20.6 19.9-48.7 32.2-79.5 32.2-63.2.1-114.6-51.3-114.6-114.5z"/>
  <path fill="#1A0E51" d="M67.7 190.5c-3.1 0-6.2-.6-7.8-2.6-1.6-2-1.6-4.7.2-8.1 6.3-12.6 7.4-20.7 5-37.7-.2-1.8-.5-3.6-.8-5.4-2.2-14.8-4.5-30.2 3.1-67.1 0-.1 0-.2.1-.2.2-1-1.2-5.2-2.9-9-.2-.3-1.8-3.9-.2-6.5.7-1.1 2.1-2.3 5-2.3 1.9 0 5.9.6 11.4 1.5 12.8 2.1 32.1 5.3 46 3.7 19.5-2.2 41-5.1 42.2-5.2.7-.1 4.9-.7 7.2 2 1.6 2 1.6 5-.2 9-4.2 9.6-3.4 12.6-1.8 18.7.4 1.4.8 3 1.2 4.8 2 9.3 6.6 57-.8 78.5 0 0-1.6 5.6 1.7 8.7 1.7 1.6 5.8 7.3 3.7 11.7-2 4-7.9 5-18 3.1-.8-.1-10.5-1.3-18.1 0-8.7 1.5-23.5.7-34.3-.7-10.5-1.4-31.5 2-33 2.2-1.5.1-5.2.9-8.9.9zm3.5-120.1c-7.4 36.2-5.2 51.1-3 65.6.3 1.8.5 3.6.8 5.4 2.2 15.9 1.9 25.4-5.4 40.1-.9 1.8-1.1 3.2-.6 3.8 1.4 1.8 8.2 1.2 12.5.1h.2c.9-.2 22.9-3.8 34.3-2.3 10.5 1.4 24.8 2.2 33.1.8 8.4-1.4 18.9-.1 19.3 0h.1c11.3 2.1 13.4-.2 13.8-.9.9-1.9-1.5-5.7-2.8-6.9-5.2-4.8-2.9-12.5-2.8-12.8 7.1-20.5 2.6-67.7.7-76.4-.4-1.7-.8-3.3-1.1-4.6-1.7-6.5-2.7-10.5 2-21.3 1-2.3 1.3-4.1.7-4.9-.6-.8-2.6-.7-3.4-.6-.3 0-22.4 3-42.4 5.3C112.6 62.3 93 59.1 80 57c-5.1-.8-9.1-1.5-10.7-1.5-1 0-1.5.2-1.6.4-.3.5 0 1.8.4 2.7 1.5 3.3 3.8 9.2 3.1 11.8zm92.5 96.4c.8-.7.9-2 .1-2.8-.7-.8-2-.9-2.8-.1-5.3 4.9-24.8 12.3-48 2.4-18.5-7.9-36.7-.4-37.5-.1-1 .4-1.5 1.6-1.1 2.6s1.6 1.5 2.6 1.1c.2-.1 17.4-7.1 34.4.1 8.8 3.7 17.3 5.2 24.9 5.2 12.5-.1 22.5-4 27.4-8.4zm.6-91.3h-12.7c-1.1 0-2-.9-2-2s.9-2 2-2h12.7c1.1 0 2 .9 2 2s-.9 2-2 2zm-25.3 0h-12.7c-1.1 0-2-.9-2-2s.9-2 2-2H139c1.1 0 2 .9 2 2s-.9 2-2 2zm-25.3 0H101c-1.1 0-2-.9-2-2s.9-2 2-2h12.7c1.1 0 2 .9 2 2s-.9 2-2 2zm-25.4 0H75.7c-1.1 0-2-.9-2-2s.9-2 2-2h12.7c1.1 0 2 .9 2 2s-1 2-2.1 2z"/>
  <path fill="#FFF" d="M153.1 116.5h2.3c.7 0 1.2.2 1.5.5.3.3.5.8.5 1.4 0 .6-.2 1.1-.5 1.4-.3.3-.8.5-1.5.5h-2.3v-3.8zm8.2 12.1l-3.5-6c1.1-.3 1.9-.9 2.5-1.7.6-.8.9-1.7.9-2.7 0-.9-.2-1.7-.6-2.4-.4-.7-1-1.3-1.9-1.7-.8-.4-1.9-.6-3.1-.6h-6.2v15.2h3.7V123h.9l3.2 5.7h4.1zm-25.2-5.6l1.9-5.6 1.9 5.6h-3.8zm5.6 5.6h3.9l-5.5-15.2h-4.3l-5.5 15.2h3.9l.9-2.7h5.7l.9 2.7zm-14.8-10.4c-.4-1.6-1.2-2.8-2.5-3.6-1.2-.9-2.8-1.3-4.6-1.3-1.5 0-2.8.3-4 1-1.2.7-2.1 1.6-2.7 2.7-.7 1.2-1 2.5-1 4s.3 2.8 1 4c.7 1.2 1.6 2.1 2.7 2.7 1.2.7 2.5 1 4 1 1.3 0 2.4-.2 3.4-.7 1-.5 1.8-1.1 2.5-1.9.7-.8 1.1-1.6 1.4-2.6V120h-8v2.7h4.7c-.3.9-.7 1.5-1.4 2-.6.5-1.4.7-2.3.7-1.3 0-2.4-.4-3.1-1.2-.8-.8-1.1-1.9-1.1-3.3 0-1.3.4-2.4 1.1-3.1.7-.8 1.7-1.2 2.9-1.2.7 0 1.3.1 1.8.4.5.3.9.7 1.2 1.2h4zm-31.6-4.8v9c0 1.4.3 2.5.8 3.4.5.9 1.3 1.6 2.2 2.1.9.5 2 .7 3.2.7s2.3-.2 3.2-.7c1-.5 1.7-1.2 2.3-2.1.6-.9.9-2.1.9-3.4v-9h-3.7v9.1c0 .9-.2 1.6-.7 2.1s-1.1.7-2 .7c-.9 0-1.5-.2-2-.7s-.7-1.2-.7-2.1v-9.1h-3.5zm-9.9 15.3c1.1 0 2.1-.2 3-.6.8-.4 1.5-1 1.9-1.7.4-.7.7-1.5.7-2.4 0-.9-.2-1.6-.7-2.2-.4-.6-1-1-1.6-1.3-.6-.3-1.4-.6-2.4-.9-1-.3-1.7-.6-2.2-.9-.5-.3-.7-.7-.7-1.1 0-.4.1-.8.4-1 .3-.2.6-.4 1.1-.4.5 0 .9.1 1.3.4.3.3.5.7.5 1.2h4c-.1-1.4-.6-2.5-1.6-3.3-1-.8-2.4-1.2-4-1.2s-3 .4-4 1.2c-1 .8-1.5 1.9-1.5 3.3 0 .9.2 1.7.7 2.3.4.6 1 1 1.6 1.3.6.3 1.4.6 2.4.9.7.2 1.2.4 1.6.5.4.2.7.4.9.6.3.2.4.6.4.9 0 .4-.2.8-.5 1-.3.3-.7.4-1.3.4-.5 0-1-.1-1.3-.4-.3-.3-.5-.7-.6-1.3h-3.9c0 1 .3 1.8.8 2.5s1.2 1.2 2.1 1.6c.8.4 1.8.6 2.9.6"/>
</svg>
