<?xml version="1.0" encoding="utf-8"?>
<!-- Generator: Adobe Illustrator 26.2.1, SVG Export Plug-In . SVG Version: 6.00 Build 0)  -->
<svg version="1.1" id="Layer_1" xmlns="http://www.w3.org/2000/svg" xmlns:xlink="http://www.w3.org/1999/xlink" x="0px" y="0px"
	 viewBox="0 0 736.8 40" style="enable-background:new 0 0 736.8 40;" xml:space="preserve">
<style type="text/css">
	.st0{fill:#1A0E51;}
</style>
<path class="st0" d="M-63.3,26.1c10.5,1,25.5,2.4,43.7,3.9c43.3,3.7,78.2,6.6,122.2,8.5c32.4,1.2,55.3,2.2,86.8,0.8
	c12.9-0.5,34.2-1.5,61.4-5c17.8-2.3,19.8-3.4,52.6-8.5c29.2-4.5,43.7-6.8,58.2-8.2c26.1-2.4,46.2-2.3,71.8-2.1
	c27.6,0.1,48.5,1.4,66,2.4c30.7,1.8,56.4,4.2,60.3,4.5c21.6,2,23.1,2.6,36.4,3.4c5.4,0.4,26.2,1.5,53.6,0.8c6.7-0.1,25.7-0.8,50-3.4
	c8.5-0.9,22.2-2.4,39.6-5.5c17.2-3.1,30-6.4,37-8.2c5.2-1.3,12-2.6,19.7-5.5c4.8-1.8,8.5-3.6,10.9-5H-63.3V26.1z"/>
</svg>
