<?xml version="1.0" encoding="utf-8"?>
<!-- Generator: Adobe Illustrator 26.2.1, SVG Export Plug-In . SVG Version: 6.00 Build 0)  -->
<svg version="1.1" id="Layer_1" xmlns="http://www.w3.org/2000/svg" xmlns:xlink="http://www.w3.org/1999/xlink" x="0px" y="0px"
	 viewBox="0 0 736.8 68.5" style="enable-background:new 0 0 736.8 68.5;" xml:space="preserve">
<style type="text/css">
	.st0{fill:#1A0E51;}
</style>
<path class="st0" d="M-63.3,36.1c10.5,1.4,25.5,3.3,43.7,5.4c43.3,5.1,78.2,9.1,122.2,11.6c32.4,1.7,55.3,3,86.8,1.1
	c12.9-0.7,34.2-2,61.4-6.9c17.8-3.1,19.8-4.6,52.6-11.6c29.2-6.2,43.7-9.3,58.2-11.2c26.1-3.3,46.2-3.1,71.8-2.9
	c27.6,0.2,48.5,1.9,66,3.3c30.7,2.4,56.4,5.7,60.3,6.1c21.6,2.7,23.1,3.5,36.4,4.7c5.4,0.5,26.2,2.1,53.6,1.1
	c6.7-0.2,25.7-1.1,50-4.7c8.5-1.2,22.2-3.3,39.6-7.5c17.2-4.3,30-8.8,37-11.2c5.2-1.8,12-3.5,19.7-7.5c4.8-2.5,8.5-5,10.9-6.8H-63.3
	V36.1z"/>
</svg>
